<?xml version="1.0" encoding="utf-8"?>
<!-- Generator: Adobe Illustrator 22.0.0, SVG Export Plug-In . SVG Version: 6.00 Build 0)  -->
<svg version="1.1" id="图层_1" xmlns="http://www.w3.org/2000/svg" xmlns:xlink="http://www.w3.org/1999/xlink" x="0px" y="0px"
	 viewBox="0 0 100 125" style="enable-background:new 0 0 100 125;" xml:space="preserve">
<path d="M82.1,73.7c-5.4,0-10.3,2.8-13.1,7l-35.6-15c0.2-1,0.3-2.1,0.3-3.2s-0.1-2.1-0.3-3.2l35.6-15c2.9,4.2,7.7,7,13.1,7
	c8.8,0,15.9-7.1,15.9-15.9s-7.1-15.9-15.9-15.9s-15.9,7.1-15.9,15.9c0,1.1,0.1,2.1,0.3,3.2L31,53.6c-2.9-4.2-7.7-7-13.1-7
	C9.1,46.6,2,53.8,2,62.5s7.1,15.9,15.9,15.9c5.5,0,10.3-2.8,13.1-7l35.6,15c-0.2,1-0.3,2.1-0.3,3.2c0,8.7,7.1,15.9,15.9,15.9
	S98,98.3,98,89.6S90.9,73.7,82.1,73.7L82.1,73.7z"/>
</svg>
