<?xml version="1.0" encoding="utf-8"?>
<!-- Generator: Adobe Illustrator 22.0.0, SVG Export Plug-In . SVG Version: 6.00 Build 0)  -->
<svg version="1.1" id="图层_1" xmlns="http://www.w3.org/2000/svg" xmlns:xlink="http://www.w3.org/1999/xlink" x="0px" y="0px"
	 viewBox="0 0 1000 1250" style="enable-background:new 0 0 1000 1250;" xml:space="preserve">
<path d="M716.4,406.9v53.4c0,29.2-5.7,57.5-17,84.2c-10.9,25.8-26.5,48.9-46.3,68.8s-43,35.4-68.8,46.3c-21.3,9-43.6,14.5-66.6,16.3
	v118.8h77.7c9.7,0,17.6,7.9,17.6,17.6s-7.9,17.6-17.6,17.6H404.6c-9.7,0-17.6-7.9-17.6-17.6s7.9-17.6,17.6-17.6h77.7V675.9
	c-23-1.9-45.4-7.3-66.6-16.3c-25.8-10.9-48.9-26.5-68.8-46.3c-19.8-19.8-35.4-43-46.3-68.8c-11.3-26.7-17-55.1-17-84.2v-53.4
	c0-9.7,7.9-17.6,17.6-17.6c9.7,0,17.6,7.9,17.6,17.6v53.4c0,24.4,4.8,48.2,14.3,70.5c9.1,21.6,22.2,40.9,38.8,57.6
	c16.6,16.6,36,29.7,57.6,38.8c22.4,9.5,46.1,14.3,70.5,14.3c24.4,0,48.2-4.8,70.5-14.3c21.6-9.1,40.9-22.2,57.6-38.8
	c16.6-16.6,29.7-36,38.8-57.6c9.5-22.4,14.2-46.1,14.2-70.5v-53.4c0-9.7,7.9-17.6,17.6-17.6C708.5,389.3,716.4,397.2,716.4,406.9z
	 M395.2,565.1c13.6,13.6,29.5,24.3,47.1,31.8c18.3,7.7,37.7,11.6,57.7,11.6c20,0,39.4-3.9,57.7-11.6c17.7-7.5,33.5-18.2,47.1-31.8
	c13.6-13.6,24.3-29.5,31.8-47.1c7.7-18.3,11.7-37.7,11.7-57.7v-142c0-20-3.9-39.4-11.7-57.7c-7.5-17.7-18.2-33.5-31.8-47.1
	c-13.6-13.6-29.5-24.3-47.1-31.8c-18.3-7.7-37.7-11.7-57.7-11.7c-20,0-39.4,3.9-57.7,11.7c-17.6,7.5-33.5,18.2-47.1,31.8
	c-13.6,13.6-24.3,29.5-31.8,47.1c-7.7,18.3-11.6,37.7-11.6,57.7v142c0,20,3.9,39.4,11.6,57.7C370.9,535.6,381.6,551.5,395.2,565.1z"
	/>
</svg>
